<?xml version="1.0" encoding="utf-8"?>
<!-- Generator: Adobe Illustrator 16.0.0, SVG Export Plug-In . SVG Version: 6.00 Build 0)  -->
<!DOCTYPE svg PUBLIC "-//W3C//DTD SVG 1.1//EN" "http://www.w3.org/Graphics/SVG/1.1/DTD/svg11.dtd">
<svg version="1.1" id="Layer_1" xmlns="http://www.w3.org/2000/svg" xmlns:xlink="http://www.w3.org/1999/xlink" x="0px" y="0px"
	 width="500px" height="500px" viewBox="0 0 500 500" enable-background="new 0 0 500 500" xml:space="preserve">
<path fill-rule="evenodd" clip-rule="evenodd" fill="#EE4037" d="M249.523,486.628c-32.006,0-63.056-6.271-92.295-18.638
	c-28.234-11.94-53.591-29.037-75.365-50.811c-21.774-21.771-38.867-47.128-50.81-75.365c-12.366-29.235-18.638-60.289-18.638-92.295
	c0-32.005,6.272-63.059,18.638-92.294c11.943-28.234,29.036-53.591,50.81-75.365c21.774-21.771,47.131-38.867,75.365-50.811
	c29.239-12.366,60.289-18.634,92.295-18.634s63.06,6.268,92.295,18.634c28.237,11.944,53.595,29.04,75.368,50.811
	c21.771,21.774,38.867,47.131,50.811,75.365c12.366,29.235,18.633,60.289,18.633,92.294c0,32.006-6.267,63.06-18.633,92.295
	c-11.943,28.237-29.04,53.595-50.811,75.365c-21.773,21.773-47.131,38.87-75.368,50.811
	C312.583,480.356,281.529,486.628,249.523,486.628z M214.267,467.124V296.68h-58.182v-67.254h58.182c0,0,0-21.874,0-45.285
	c0-75.83,46.071-91.727,95.019-91.727c18.114,0,41.816,2.696,41.816,2.696v59.545c0,0-17.345,0-37.578,0
	c-21.583,0-30.253,12.432-30.253,30.257c0,15.896,0,44.514,0,44.514h65.902l-8.477,67.254h-57.426v170.679v0.003
	c46.054-7.035,88.532-28.439,122.094-62.001c41.626-41.626,64.551-96.972,64.551-155.841c0-58.868-22.925-114.21-64.551-155.837
	c-41.627-41.626-96.973-64.551-155.841-64.551c-58.869,0-114.214,22.924-155.841,64.551C52.06,135.309,29.135,190.651,29.135,249.52
	c0,58.869,22.924,114.215,64.547,155.841C126.876,438.554,168.794,459.857,214.267,467.124z"/>
</svg>
